<svg width="1460" height="76" viewBox="0 0 1460 76" version="1.1" xmlns="http://www.w3.org/2000/svg" xmlns:xlink="http://www.w3.org/1999/xlink"><title>mentioned</title><desc>Created with Sketch.</desc><g id="Page-1" stroke="none" stroke-width="1" fill="none" fill-rule="evenodd"><g id="nyt" transform="translate(0.000000, 6.000000)" fill-rule="nonzero" fill="#B8B8B8"><path d="M38.7692308,7.67307692 C38.7692308,2.15384615 33.5192308,0.403846154 29.0769231,0.538461538 L29.0769231,1.07692308 C31.7692308,1.34615385 33.7884615,2.42307692 33.7884615,4.17307692 C33.7884615,5.38461538 32.8461538,7 30.2884615,7 C28.1346154,7 24.7692308,5.78846154 21.4038462,4.71153846 C17.7692308,3.5 14.4038462,2.28846154 11.5769231,2.28846154 C6.05769231,2.28846154 1.75,6.46153846 1.75,11.5769231 C1.75,15.75 4.98076923,17.0961538 6.19230769,17.6346154 L6.32692308,17.3653846 C5.51923077,16.8269231 4.98076923,16.1538462 4.98076923,14.4038462 C4.98076923,12.9230769 6.05769231,10.9038462 8.88461538,10.9038462 C11.4423077,10.9038462 14.8076923,12.1153846 19.3846154,13.3269231 C23.2884615,14.4038462 27.4615385,15.4807692 29.75,15.75 L29.75,24.7692308 L25.4423077,28.4038462 L29.75,32.1730769 L29.75,44.5576923 C27.4615385,45.9038462 24.9038462,46.3076923 22.6153846,46.3076923 C18.4423077,46.3076923 14.6730769,45.0961538 11.5769231,41.7307692 L23.2884615,36.0769231 L23.2884615,16.2884615 L9.01923077,22.75 C10.5,18.9807692 13.3269231,16.1538462 16.4230769,14.2692308 L16.2884615,14 C7.80769231,16.2884615 0,24.0961538 0,33.7884615 C0,45.3653846 9.28846154,53.8461538 19.9230769,53.8461538 C31.5,53.8461538 38.2307692,44.8269231 38.0961538,35.2692308 L37.8269231,35.2692308 C36.0769231,38.9038462 33.3846154,42.4038462 30.1538462,44.2884615 L30.1538462,32.1730769 L34.7307692,28.5384615 L30.1538462,24.9038462 L30.1538462,15.8846154 C34.4615385,15.75 38.7692308,12.9230769 38.7692308,7.67307692 L38.7692308,7.67307692 Z M14.6730769,39.4423077 L11.3076923,41.1923077 C9.28846154,38.5 7.94230769,34.8653846 7.94230769,30.0192308 C7.94230769,28 8.21153846,25.3076923 8.88461538,23.4230769 L14.8076923,20.7307692 L14.6730769,39.4423077 L14.6730769,39.4423077 Z M68.3846154,23.5576923 L66.0961538,25.3076923 L59.3653846,19.25 L51.4230769,25.3076923 L51.4230769,1.88461538 L40.6538462,9.28846154 C41.8653846,9.69230769 43.3461538,10.3653846 43.3461538,13.1923077 L43.3461538,45.7692308 L39.7115385,48.5961538 L40.1153846,49 L42,47.6538462 L48.3269231,53.4423077 L56.9423077,47.7884615 L56.5384615,47.25 L54.3846154,48.7307692 L51.4230769,45.7692308 L51.4230769,26.1153846 L53.4423077,24.6346154 L58.1538462,28.6730769 L58.1538462,45.7692308 C58.1538462,56.5384615 55.7307692,58.8269231 50.8846154,60.5769231 L50.8846154,60.8461538 C58.9615385,61.25 66.2307692,58.4230769 66.2307692,44.5576923 L66.2307692,25.9807692 L68.6538462,23.9615385 L68.3846154,23.5576923 L68.3846154,23.5576923 Z M82.7884615,53.3076923 L95.1730769,43.3461538 L94.7692308,42.8076923 L88.3076923,47.9230769 L80.7692308,42.1346154 L80.7692308,38.5 L93.6923077,29.3461538 L87.2307692,19.25 L72.8269231,27.1923077 L72.8269231,45.9038462 L70,48.0576923 L70.4038462,48.4615385 L73.0961538,46.3076923 L82.7884615,53.3076923 L82.7884615,53.3076923 Z M80.7692308,37.6923077 L80.7692308,23.5576923 L86.9615385,33.3846154 L80.7692308,37.6923077 L80.7692308,37.6923077 Z M146.596154,4.98076923 C146.596154,4.03846154 146.326923,3.36538462 146.057692,2.28846154 L145.788462,2.28846154 C144.846154,4.71153846 143.903846,5.92307692 141.211538,5.92307692 C138.788462,5.92307692 136.903846,4.44230769 135.826923,3.36538462 C135.826923,3.5 127.615385,12.7884615 127.615385,12.7884615 L128.019231,13.1923077 L130.307692,10.5 C132.057692,11.8461538 133.673077,13.4615385 137.576923,13.4615385 L137.576923,37.2884615 L121.019231,8.34615385 C119.673077,6.19230769 117.519231,2.96153846 113.615385,2.96153846 C109.173077,2.96153846 105.673077,6.86538462 106.211538,13.3269231 L106.480769,13.3269231 C106.884615,11.7115385 107.826923,9.69230769 109.711538,9.69230769 C111.326923,9.69230769 112.538462,11.1730769 113.346154,12.5192308 L113.346154,21.8076923 C108.230769,21.8076923 105.269231,24.2307692 105.269231,28.2692308 C105.269231,30.0192308 106.480769,33.6538462 109.980769,34.1923077 L109.980769,33.9230769 C109.442308,33.3846154 109.038462,32.9807692 109.038462,32.0384615 C109.038462,30.4230769 110.25,29.6153846 112.269231,29.6153846 C112.673077,29.6153846 113.076923,29.75 113.346154,29.75 L113.346154,41.8653846 C107.288462,42 102.576923,45.2307692 102.576923,51.0192308 C102.576923,56.4038462 107.288462,58.9615385 112.134615,58.6923077 L112.134615,58.4230769 C109.038462,58.0192308 107.557692,56.5384615 107.557692,54.25 C107.557692,51.8269231 109.307692,50.4807692 111.596154,50.4807692 C113.884615,50.4807692 115.5,51.9615385 116.980769,53.5769231 L125.192308,44.4230769 L124.788462,44.0192308 L122.634615,46.4423077 C119.538462,43.6153846 117.519231,42.4038462 113.884615,41.8653846 L113.884615,13.3269231 L136.903846,53.4423077 L138.115385,53.4423077 L138.115385,13.4615385 C142.692308,13.1923077 146.596154,9.96153846 146.596154,4.98076923 L146.596154,4.98076923 Z M154.403846,53.3076923 L166.788462,43.3461538 L166.384615,42.8076923 L159.923077,47.9230769 L152.384615,42 L152.384615,38.3653846 L165.307692,29.2115385 L158.846154,19.1153846 L144.442308,27.0576923 L144.442308,45.7692308 L141.615385,47.9230769 L142.019231,48.3269231 L144.711538,46.1730769 L154.403846,53.3076923 L154.403846,53.3076923 Z M152.519231,37.6923077 L152.519231,23.5576923 L158.711538,33.3846154 L152.519231,37.6923077 L152.519231,37.6923077 Z M210.942308,22.4807692 L209.057692,23.9615385 L203.673077,19.3846154 L197.346154,25.0384615 L199.903846,27.4615385 L199.903846,48.7307692 L193.442308,44.2884615 L193.442308,27.0576923 L195.730769,25.4423077 L189.134615,19.25 L182.942308,24.9038462 L185.5,27.3269231 L185.5,47.9230769 L185.096154,48.1923077 L179.038462,43.75 L179.038462,26.9230769 C179.038462,23.0192308 177.019231,21.8076923 174.596154,20.3269231 C172.442308,18.9807692 171.365385,17.7692308 171.365385,15.8846154 C171.365385,13.7307692 173.25,12.7884615 173.923077,12.5192308 C171.769231,12.3846154 165.711538,14.6730769 165.576923,20.1923077 C165.442308,23.0192308 166.923077,24.2307692 168.269231,25.5769231 C169.75,26.9230769 171.096154,28.2692308 171.096154,30.5576923 L171.096154,47.1153846 L168.134615,49.4038462 L168.538462,49.8076923 L171.365385,47.6538462 L178.634615,53.5769231 L185.634615,48.7307692 L193.307692,53.5769231 L208.25,44.6923077 L208.25,25.4423077 L211.615385,22.8846154 L210.942308,22.4807692 L210.942308,22.4807692 Z M261.019231,6.32692308 L258.192308,8.88461538 L251.865385,3.36538462 L243.25,10.3653846 L243.25,3.90384615 L242.711538,3.90384615 L242.711538,50.6153846 C241.769231,50.4807692 239.75,49.9423077 237.596154,49.5384615 L237.596154,10.5 C237.596154,7.67307692 235.576923,3.76923077 230.461538,3.76923077 C225.211538,3.76923077 222.115385,8.07692308 222.115385,11.8461538 L222.384615,11.8461538 C222.653846,10.0961538 223.865385,8.61538462 225.480769,8.61538462 C227.230769,8.61538462 228.711538,9.69230769 228.711538,13.4615385 L228.711538,24.6346154 C223.865385,24.9038462 220.903846,27.8653846 220.903846,31.0961538 C220.903846,32.9807692 222.115385,36.3461538 225.75,36.4807692 L225.75,36.2115385 C224.538462,35.6730769 224.269231,35 224.269231,34.3269231 C224.269231,32.7115385 225.884615,32.1730769 228.038462,32.1730769 L228.576923,32.1730769 L228.576923,50.0769231 C224.403846,51.5576923 222.519231,54.25 222.519231,57.75 C222.519231,62.4615385 226.288462,66.2307692 231.942308,66.2307692 C235.846154,66.2307692 238.673077,65.5576923 242.307692,64.75 C245.269231,64.0769231 248.365385,63.4038462 250.115385,63.4038462 C252.269231,63.4038462 253.211538,64.3461538 253.211538,65.9615385 C253.211538,67.9807692 252.403846,68.9230769 251.326923,69.3269231 L251.326923,69.5961538 C256.038462,68.6538462 258.730769,65.9615385 258.730769,61.7884615 C258.730769,57.4807692 254.557692,54.7884615 249.980769,54.7884615 C247.557692,54.7884615 243.25,55.5961538 239.75,56.4038462 C235.846154,57.3461538 232.346154,57.75 231.134615,57.75 C229.115385,57.75 226.692308,56.8076923 226.692308,54.25 C226.692308,51.8269231 228.711538,49.9423077 233.557692,49.9423077 C236.25,49.9423077 238.807692,50.3461538 242.038462,51.1538462 C245.538462,51.9615385 247.826923,52.9038462 250.923077,52.9038462 C255.096154,52.9038462 258.461538,51.4230769 258.461538,45.3653846 L258.461538,9.55769231 L261.557692,6.73076923 L261.019231,6.32692308 L261.019231,6.32692308 Z M249.307692,25.0384615 C248.5,25.8461538 247.692308,26.5192308 246.211538,26.5192308 C244.596154,26.5192308 243.788462,25.7115385 243.115385,25.0384615 L243.115385,11.0384615 L245.134615,9.42307692 L249.307692,12.9230769 L249.307692,25.0384615 L249.307692,25.0384615 Z M249.307692,31.7692308 C248.634615,31.0961538 247.692308,30.4230769 246.211538,30.4230769 C244.730769,30.4230769 243.653846,31.2307692 243.115385,31.7692308 L243.115385,25.8461538 C243.788462,26.3846154 244.730769,27.1923077 246.211538,27.1923077 C247.692308,27.1923077 248.634615,26.5192308 249.307692,25.8461538 L249.307692,31.7692308 L249.307692,31.7692308 Z M249.307692,45.7692308 C249.307692,48.0576923 248.096154,50.6153846 245.134615,50.6153846 C244.596154,50.6153846 243.519231,50.4807692 243.115385,50.4807692 L243.115385,32.4423077 C243.788462,31.7692308 244.730769,30.9615385 246.211538,30.9615385 C247.692308,30.9615385 248.5,31.6346154 249.307692,32.4423077 L249.307692,45.7692308 L249.307692,45.7692308 Z M273.538462,53.3076923 L287.403846,44.6923077 L287.403846,25.8461538 L278.384615,19.25 L264.519231,27.1923077 L264.519231,45.9038462 L261.826923,48.0576923 L262.096154,48.4615385 L264.384615,46.5769231 L273.538462,53.3076923 L273.538462,53.3076923 Z M272.596154,43.6153846 L272.596154,23.4230769 L279.596154,28.5384615 L279.596154,48.5961538 L272.596154,43.6153846 L272.596154,43.6153846 Z M313.923077,19.6538462 C312.846154,20.4615385 311.903846,20.8653846 310.826923,20.8653846 C309.75,20.8653846 308.403846,20.1923077 307.730769,19.25 C307.730769,19.3846154 302.615385,24.7692308 302.615385,24.7692308 L297.5,19.25 L289.019231,25.0384615 L289.288462,25.5769231 L291.576923,24.0961538 L294.673077,27.4615385 L294.673077,45.7692308 L291.038462,48.5961538 L291.442308,49 L293.326923,47.6538462 L300.192308,53.4423077 L308.942308,47.6538462 L308.673077,47.25 L306.384615,48.5961538 L302.884615,45.3653846 L302.884615,25.3076923 C304.365385,26.9230769 305.980769,28.2692308 307.865385,28.2692308 C311.096154,28.2692308 313.519231,24.0961538 313.923077,19.6538462 L313.923077,19.6538462 Z M346.769231,46.7115385 L344.211538,48.3269231 L329.807692,26.9230769 L330.615385,25.8461538 C332.230769,26.7884615 333.576923,28.1346154 336.538462,28.1346154 C339.5,28.1346154 343.269231,25.0384615 343.673077,19.25 C342.865385,20.3269231 341.384615,21.5384615 338.961538,21.5384615 C337.211538,21.5384615 335.461538,20.3269231 334.384615,19.25 L324.557692,33.6538462 L337.480769,53.4423077 L346.903846,47.25 L346.769231,46.7115385 L346.769231,46.7115385 Z M329.269231,47.25 L327.115385,48.7307692 L324.153846,45.7692308 L324.153846,1.88461538 L313.384615,9.28846154 C314.596154,9.69230769 316.076923,10.3653846 316.076923,13.1923077 L316.076923,45.7692308 L312.442308,48.5961538 L312.846154,49 L314.730769,47.6538462 L321.057692,53.4423077 L329.673077,47.7884615 L329.269231,47.25 L329.269231,47.25 Z M392.403846,7.67307692 C392.403846,2.15384615 387.153846,0.403846154 382.711538,0.538461538 L382.711538,1.07692308 C385.403846,1.34615385 387.423077,2.42307692 387.423077,4.17307692 C387.423077,5.38461538 386.480769,7 383.923077,7 C381.769231,7 378.403846,5.78846154 375.038462,4.71153846 C371.403846,3.5 368.038462,2.28846154 365.211538,2.28846154 C359.692308,2.28846154 355.384615,6.46153846 355.384615,11.5769231 C355.384615,15.75 358.615385,17.0961538 359.826923,17.6346154 L359.961538,17.3653846 C359.153846,16.8269231 358.615385,16.1538462 358.615385,14.4038462 C358.615385,12.9230769 359.692308,10.9038462 362.519231,10.9038462 C365.076923,10.9038462 368.442308,12.1153846 373.019231,13.3269231 C376.923077,14.4038462 381.096154,15.4807692 383.384615,15.75 L383.384615,24.7692308 L379.076923,28.4038462 L383.384615,32.1730769 L383.384615,44.5576923 C381.096154,45.9038462 378.538462,46.3076923 376.25,46.3076923 C372.076923,46.3076923 368.307692,45.0961538 365.211538,41.7307692 L376.923077,36.0769231 L376.923077,16.2884615 L362.519231,22.6153846 C364,18.8461538 366.826923,16.0192308 369.923077,14.1346154 L369.788462,13.8653846 C361.307692,16.1538462 353.5,23.9615385 353.5,33.6538462 C353.5,45.2307692 362.788462,53.7115385 373.423077,53.7115385 C385,53.7115385 391.730769,44.6923077 391.596154,35.1346154 L391.326923,35.1346154 C389.576923,38.7692308 386.884615,42.2692308 383.653846,44.1538462 L383.653846,32.0384615 L388.230769,28.4038462 L383.653846,24.7692308 L383.653846,15.75 C388.096154,15.75 392.403846,12.9230769 392.403846,7.67307692 L392.403846,7.67307692 Z M368.173077,39.4423077 L364.807692,41.1923077 C362.788462,38.5 361.442308,34.8653846 361.442308,30.0192308 C361.442308,28 361.711538,25.3076923 362.384615,23.4230769 L368.307692,20.7307692 L368.173077,39.4423077 L368.173077,39.4423077 Z M401.153846,5.51923077 L395.230769,10.5 L400.346154,16.2884615 L406.269231,11.3076923 L401.153846,5.51923077 L401.153846,5.51923077 Z M410.307692,47.25 L408.153846,48.7307692 L405.192308,45.7692308 L405.192308,25.9807692 L407.75,23.9615385 L407.346154,23.5576923 L405.192308,25.1730769 L400.211538,19.25 L392,24.9038462 L392.269231,25.4423077 L394.288462,24.0961538 L396.980769,27.4615385 L396.980769,45.7692308 L393.346154,48.5961538 L393.75,49 L395.634615,47.6538462 L401.961538,53.4423077 L410.576923,47.7884615 L410.307692,47.25 L410.307692,47.25 Z M456.076923,46.9807692 L454.057692,48.3269231 L450.826923,45.2307692 L450.826923,25.9807692 L453.384615,23.9615385 L452.980769,23.5576923 L450.692308,25.3076923 L443.961538,19.25 L436.288462,25.1730769 L429.557692,19.25 L422.019231,25.1730769 L416.903846,19.25 L408.692308,24.9038462 L408.961538,25.4423077 L410.980769,24.0961538 L413.942308,27.4615385 L413.942308,45.6346154 L411.653846,47.9230769 L418.115385,53.4423077 L424.442308,47.7884615 L421.884615,45.3653846 L421.884615,25.8461538 L423.634615,24.6346154 L428.346154,28.6730769 L428.346154,45.6346154 L426.192308,47.9230769 L432.788462,53.4423077 L438.980769,47.7884615 L436.423077,45.3653846 L436.423077,25.8461538 L438.038462,24.5 L442.75,28.6730769 L442.75,45.3653846 L440.865385,47.3846154 L447.461538,53.4423077 L456.211538,47.5192308 L456.076923,46.9807692 L456.076923,46.9807692 Z M479.903846,42.9423077 L473.442308,48.0576923 L465.903846,42.1346154 L465.903846,38.5 L478.826923,29.3461538 L472.365385,19.25 L457.961538,27.1923077 L457.961538,46.3076923 L467.788462,53.4423077 L480.173077,43.4807692 L479.903846,42.9423077 L479.903846,42.9423077 Z M465.903846,37.6923077 L465.903846,23.5576923 L472.096154,33.3846154 L465.903846,37.6923077 L465.903846,37.6923077 Z M504.807692,35 L499.288462,30.8269231 C502.923077,27.5961538 504.269231,23.5576923 504.269231,20.5961538 C504.269231,20.1923077 504.134615,19.3846154 504.134615,18.7115385 L503.865385,18.7115385 C503.326923,20.1923077 501.846154,21.5384615 499.692308,21.5384615 C497.538462,21.5384615 496.192308,20.3269231 494.846154,18.8461538 L482.192308,25.8461538 L482.192308,36.0769231 L487.038462,39.8461538 C482.192308,44.1538462 481.25,46.8461538 481.25,49.2692308 C481.25,51.8269231 482.730769,53.8461538 485.153846,54.7884615 L485.423077,54.3846154 C484.75,53.8461538 484.211538,53.4423077 484.211538,52.2307692 C484.211538,51.2884615 485.153846,49.8076923 487.307692,49.8076923 C490.134615,49.8076923 491.75,51.6923077 492.692308,52.7692308 C492.692308,52.6346154 504.807692,45.3653846 504.807692,45.3653846 L504.807692,35 L504.807692,35 Z M501.980769,26.6538462 C500.096154,30.0192308 495.923077,33.3846154 493.365385,35.2692308 L490.269231,32.7115385 L490.269231,22.75 C491.480769,25.4423077 494.038462,27.7307692 497.269231,27.7307692 C499.288462,27.7307692 500.5,27.3269231 501.980769,26.6538462 L501.980769,26.6538462 Z M496.730769,49 C495.25,45.7692308 492.288462,43.4807692 488.788462,43.4807692 C487.980769,43.4807692 485.423077,43.3461538 483.269231,44.8269231 C484.615385,42.6730769 488.384615,38.7692308 493.365385,35.8076923 L496.730769,38.6346154 L496.730769,49 L496.730769,49 Z" id="Shape"/></g><g id="ph" transform="translate(797.192308, 0.000000)" fill-rule="nonzero" fill="#B8B8B8"><path d="M70,35 C70,54.3299167 54.3299167,70 35,70 C15.6700833,70 0,54.3299167 0,35 C0,15.6700833 15.6700833,0 35,0 C54.3299167,0 70,15.6700833 70,35 Z M39.6666667,34.9998833 L39.6666667,35.000175 L29.75,35.000175 L29.75,24.500175 L39.6666667,24.500175 L39.6666667,24.4998833 C42.566125,24.4998833 44.9166667,26.850425 44.9166667,29.7498833 C44.9166667,32.6493417 42.566125,34.9998833 39.6666667,34.9998833 Z M39.6666667,17.4998833 L39.6666667,17.500175 L22.75,17.4998833 L22.75,52.4998833 L29.75,52.4998833 L29.75,42.000175 L39.6666667,42.000175 L39.6666667,41.9998833 C46.4321667,41.9998833 51.9166667,36.5153833 51.9166667,29.7498833 C51.9166667,22.9843833 46.4321667,17.4998833 39.6666667,17.4998833 Z" id="Combined-Shape"/><path d="M106.769804,30.7217167 C106.769804,28.7967167 105.289596,27.6283 103.367221,27.6283 L98.2131792,27.6283 L98.2131792,33.7801333 L103.367221,33.7801333 C105.289596,33.7801333 106.769804,32.6117167 106.769804,30.7217167 L106.769804,30.7217167 Z M93.3333042,46.66655 L93.3333042,23.3332167 L104.052929,23.3332167 C109.036346,23.3332167 111.750304,26.7008 111.750304,30.7217167 C111.750304,34.7076333 109.002804,38.0752167 104.052929,38.0752167 L98.2131792,38.0752167 L98.2131792,46.66655 L93.3333042,46.66655 Z" id="Fill-5"/><path d="M114.719179,46.6666667 L114.719179,29.6555 L119.081346,29.6555 L119.081346,31.8899583 C120.284471,30.4462083 122.313304,29.24425 124.375388,29.24425 L124.375388,33.5043333 C124.064763,33.4357917 123.687054,33.40225 123.172263,33.40225 C121.728513,33.40225 119.803221,34.2262083 119.081346,35.2925417 L119.081346,46.6666667 L114.719179,46.6666667 Z" id="Fill-7"/><path d="M139.054242,37.9380167 C139.054242,35.36085 137.540492,33.1266833 134.7927,33.1266833 C132.075825,33.1266833 130.5647,35.36085 130.5647,37.9380167 C130.5647,40.5501833 132.075825,42.7828917 134.7927,42.7828917 C137.540492,42.7828917 139.054242,40.5501833 139.054242,37.9380167 M126.028992,37.9380167 C126.028992,33.230225 129.328033,29.2443083 134.7927,29.2443083 C140.290908,29.2443083 143.58995,33.230225 143.58995,37.9380167 C143.58995,42.6458083 140.290908,46.666725 134.7927,46.666725 C129.328033,46.666725 126.028992,42.6458083 126.028992,37.9380167" id="Fill-9"/><path d="M158.274375,40.8928042 L158.274375,35.0168875 C157.5525,33.9170125 155.971667,33.1265958 154.527625,33.1265958 C152.02075,33.1265958 150.302542,35.0854292 150.302542,37.9379292 C150.302542,40.8242625 152.02075,42.7828042 154.527625,42.7828042 C155.971667,42.7828042 157.5525,41.9923875 158.274375,40.8928042 L158.274375,40.8928042 Z M158.274375,46.6666375 L158.274375,44.1233042 C156.967708,45.7726792 155.182417,46.6666375 153.153875,46.6666375 C148.995875,46.6666375 145.800375,43.5049708 145.800375,37.9379292 C145.800375,32.5432625 148.928792,29.2442208 153.153875,29.2442208 C155.112417,29.2442208 156.967708,30.0684708 158.274375,31.7863875 L158.274375,23.3333042 L162.673,23.3333042 L162.673,46.6666375 L158.274375,46.6666375 Z" id="Fill-11"/><path d="M178.216412,46.6666667 L178.216412,44.1580417 C177.083287,45.395 175.090912,46.6666667 172.376662,46.6666667 C168.733746,46.6666667 167.015537,44.673125 167.015537,41.442625 L167.015537,29.6555 L171.377996,29.6555 L171.377996,39.7247083 C171.377996,42.0274167 172.581121,42.7828333 174.436121,42.7828333 C176.120496,42.7828333 177.460996,41.8553333 178.216412,40.8928333 L178.216412,29.6555 L182.581496,29.6555 L182.581496,46.6666667 L178.216412,46.6666667 Z" id="Fill-13"/><path d="M185.858021,37.9380167 C185.858021,32.8525167 189.568313,29.2443083 194.655271,29.2443083 C198.057854,29.2443083 200.119938,30.7216 201.219521,32.2341833 L198.365563,34.9131417 C197.576313,33.7450167 196.373188,33.1266833 194.862354,33.1266833 C192.215188,33.1266833 190.360188,35.0516833 190.360188,37.9380167 C190.360188,40.82435 192.215188,42.7828917 194.862354,42.7828917 C196.373188,42.7828917 197.576313,42.0960167 198.365563,40.9614333 L201.219521,43.64185 C200.119938,45.1544333 198.057854,46.666725 194.655271,46.666725 C189.568313,46.666725 185.858021,43.0585167 185.858021,37.9380167" id="Fill-15"/><path d="M204.971812,42.0959875 L204.971812,33.4708208 L202.224021,33.4708208 L202.224021,29.6555292 L204.971812,29.6555292 L204.971812,25.1198208 L209.336896,25.1198208 L209.336896,29.6555292 L212.703021,29.6555292 L212.703021,33.4708208 L209.336896,33.4708208 L209.336896,40.9278625 C209.336896,41.9924458 209.885229,42.7828625 210.847729,42.7828625 C211.499896,42.7828625 212.120854,42.5422375 212.358854,42.2680708 L213.287813,45.6006542 C212.635938,46.1854458 211.466063,46.6666958 209.644604,46.6666958 C206.586187,46.6666958 204.971812,45.0858625 204.971812,42.0959875" id="Fill-17"/><polygon id="Fill-19" points="240.657375 46.6666667 240.657375 36.59775 229.831583 36.59775 229.831583 46.6666667 224.954333 46.6666667 224.954333 23.3333333 229.831583 23.3333333 229.831583 32.3362083 240.657375 32.3362083 240.657375 23.3333333 245.570792 23.3333333 245.570792 46.6666667"/><path d="M261.187004,46.6666667 L261.187004,44.1580417 C260.053879,45.395 258.061504,46.6666667 255.347254,46.6666667 C251.704338,46.6666667 249.986129,44.673125 249.986129,41.442625 L249.986129,29.6555 L254.348296,29.6555 L254.348296,39.7247083 C254.348296,42.0274167 255.551713,42.7828333 257.406713,42.7828333 C259.091088,42.7828333 260.431588,41.8553333 261.187004,40.8928333 L261.187004,29.6555 L265.552088,29.6555 L265.552088,46.6666667 L261.187004,46.6666667 Z" id="Fill-21"/><path d="M281.092642,46.6666667 L281.092642,36.2200417 C281.092642,33.9170417 279.892142,33.126625 278.034225,33.126625 C276.316308,33.126625 275.012267,34.089125 274.254225,35.051625 L274.254225,46.6666667 L269.891767,46.6666667 L269.891767,29.6555 L274.254225,29.6555 L274.254225,31.7864167 C275.320267,30.54975 277.38235,29.24425 280.063058,29.24425 C283.739517,29.24425 285.491267,31.3051667 285.491267,34.535375 L285.491267,46.6666667 L281.092642,46.6666667 Z" id="Fill-23"/><path d="M290.692938,42.0959875 L290.692938,33.4708208 L287.945146,33.4708208 L287.945146,29.6555292 L290.692938,29.6555292 L290.692938,25.1198208 L295.058021,25.1198208 L295.058021,29.6555292 L298.424146,29.6555292 L298.424146,33.4708208 L295.058021,33.4708208 L295.058021,40.9278625 C295.058021,41.9924458 295.606354,42.7828625 296.568854,42.7828625 C297.221021,42.7828625 297.841979,42.5422375 298.082604,42.2680708 L299.008938,45.6006542 C298.356771,46.1854458 297.187188,46.6666958 295.365729,46.6666958 C292.307313,46.6666958 290.692938,45.0858625 290.692938,42.0959875" id="Fill-25"/></g><g id="recode" transform="translate(1172.634615, -3.000000)" fill-rule="nonzero" fill="#B8B8B8"><path d="M28.28,30.1 L28.28,15.75 C21.98,15.75 17.535,18.41 14.98,23.73 L14.98,16.73 L0.21,16.73 L0.21,68.565 L15.96,68.565 L15.96,43.225 C15.96,33.46 18.025,30.135 27.895,30.135 L28.28,30.135 L28.28,30.1 Z" id="Shape"/><path d="M286.79,46.55 C286.79,27.475 275.625,15.75 259.315,15.75 C252.35,15.75 245.595,18.62 240.415,23.765 C237.65,26.53 235.585,29.75 234.255,33.285 L234.255,0.07 L218.68,0.07 L218.68,22.435 C215.18,17.885 210.245,15.75 203.84,15.75 C197.155,15.75 191.135,18.2 186.2,23.03 C182.63,26.46 180.145,30.485 178.85,34.965 C177.52,30.59 175.07,26.495 171.57,23.17 C166.425,18.305 160.02,15.715 152.565,15.715 C145.6,15.715 138.81,18.585 133.665,23.73 C130.9,26.495 128.8,29.75 127.47,33.32 C122.99,21.91 113.96,15.75 101.92,15.75 C96.495,15.75 91.665,17.22 87.395,20.125 L79.975,38.08 C77.14,24.08 67.06,15.75 53.34,15.75 C46.375,15.75 39.62,18.62 34.44,23.765 C29.365,28.805 26.6,35.385 26.6,42.525 C26.6,49.77 29.19,56.245 34.125,61.495 C39.375,67.025 45.675,69.685 53.48,69.685 C59.325,69.685 64.4,68.25 68.635,65.45 L73.535,53.55 L61.775,53.55 C59.5,55.545 57.015,56.42 53.97,56.42 C47.39,56.42 43.47,53.55 42.14,48.125 L75.81,48.125 C76.825,53.095 79.135,57.68 82.775,61.495 C88.025,67.025 94.29,69.685 102.095,69.685 C113.82,69.685 123.235,63.21 127.505,52.255 C128.765,55.65 130.725,58.73 133.315,61.46 C138.565,66.99 144.865,69.685 152.705,69.685 C160.44,69.685 166.95,66.92 172.2,61.67 C175.385,58.485 177.59,54.845 178.78,50.68 C180.18,55.58 182.91,59.885 186.935,63.49 C191.555,67.62 197.085,69.685 203.49,69.685 C209.79,69.685 214.515,68.005 219.135,63.49 L219.135,68.53 L234.22,68.53 L234.22,52.08 C235.48,55.51 237.44,58.695 240.1,61.495 C245.35,67.025 251.65,69.685 259.455,69.685 C270.9,69.685 279.405,64.26 284.34,53.55 L267.75,53.55 C265.475,55.545 262.99,56.42 259.945,56.42 C253.365,56.42 249.445,53.55 248.115,48.125 L286.755,48.125 L286.755,46.55 L286.79,46.55 Z M41.685,37.485 C42.735,32.62 47.215,29.365 53.515,29.365 C59.535,29.365 63.805,32.235 65.625,37.485 L41.685,37.485 Z M112.21,50.085 C109.725,53.41 106.4,55.125 102.305,55.125 C95.06,55.125 90.125,50.26 90.125,42.455 C90.125,35.42 95.06,30.275 101.85,30.275 C106.785,30.275 110.32,32.165 112.42,35.7 L126.7,35.7 C126.105,37.905 125.825,40.18 125.825,42.56 C125.825,45.15 126.175,47.67 126.84,50.085 L112.21,50.085 Z M152.845,55.72 C146.09,55.72 140.385,49.945 140.385,42.77 C140.385,35.525 145.985,29.715 152.845,29.715 C159.705,29.715 165.305,35.49 165.305,42.77 C165.305,49.945 159.705,55.72 152.845,55.72 L152.845,55.72 Z M206.99,55.72 C199.045,55.72 193.34,50.12 193.34,42.77 C193.34,35.7 199.045,29.715 206.395,29.715 C213.64,29.715 219.24,35.42 219.24,42.945 C219.275,50.225 213.675,55.72 206.99,55.72 L206.99,55.72 Z M247.695,37.485 C248.745,32.62 253.225,29.365 259.525,29.365 C265.545,29.365 269.815,32.235 271.635,37.485 L247.695,37.485 Z" id="Shape"/></g><g id="tc" transform="translate(581.000000, 0.000000)" fill-rule="nonzero" fill="#B8B8B8"><polygon id="Fill-1" points="70 0 70 23.3333333 46.6666667 23.3333333 46.6666667 70 23.3333333 70 23.3333333 23.3333333 0 23.3333333 0 0"/><polygon id="Fill-2" points="93.3333333 23.3333333 140 23.3333333 140 0 93.3333333 0"/><polygon id="Fill-3" points="93.3333333 23.3333333 93.3333333 46.6666667 140 46.6666667 140 70 70 70 70 23.3333333"/></g></g></svg>