<svg width="688" height="679" viewBox="0 0 688 679" version="1.1" xmlns="http://www.w3.org/2000/svg" xmlns:xlink="http://www.w3.org/1999/xlink"><title>search</title><desc>Created with Sketch.</desc><defs><linearGradient x1="50%" y1="100%" x2="50%" y2="0%" id="linearGradient-1"><stop stop-color="gray" stop-opacity=".25" offset="0%"/><stop stop-color="gray" stop-opacity=".12" offset="54%"/><stop stop-color="gray" stop-opacity=".1" offset="100%"/></linearGradient><linearGradient x1="27444%" y1="40932%" x2="27444%" y2="24816%" id="linearGradient-2"><stop stop-color="gray" stop-opacity=".25" offset="0%"/><stop stop-color="gray" stop-opacity=".12" offset="54%"/><stop stop-color="gray" stop-opacity=".1" offset="100%"/></linearGradient><linearGradient x1="27444%" y1="36144%" x2="27444%" y2="26101%" id="linearGradient-3"><stop stop-color="gray" stop-opacity=".25" offset="0%"/><stop stop-color="gray" stop-opacity=".12" offset="54%"/><stop stop-color="gray" stop-opacity=".1" offset="100%"/></linearGradient><rect id="path-4" x=".54" y=".72" width="143.79" height="96.93"/><linearGradient x1="27444%" y1="61603%" x2="27444%" y2="45487%" id="linearGradient-6"><stop stop-color="gray" stop-opacity=".25" offset="0%"/><stop stop-color="gray" stop-opacity=".12" offset="54%"/><stop stop-color="gray" stop-opacity=".1" offset="100%"/></linearGradient><linearGradient x1="27444%" y1="56815%" x2="27444%" y2="46772%" id="linearGradient-7"><stop stop-color="gray" stop-opacity=".25" offset="0%"/><stop stop-color="gray" stop-opacity=".12" offset="54%"/><stop stop-color="gray" stop-opacity=".1" offset="100%"/></linearGradient><rect id="path-8" x=".54" y=".42" width="143.79" height="96.93"/><linearGradient x1="68876%" y1="76586%" x2="68876%" y2="16326%" id="linearGradient-10"><stop stop-color="gray" stop-opacity=".25" offset="0%"/><stop stop-color="gray" stop-opacity=".12" offset="54%"/><stop stop-color="gray" stop-opacity=".1" offset="100%"/></linearGradient><linearGradient x1="68818%" y1="56849%" x2="68818%" y2="40967%" id="linearGradient-11"><stop stop-color="gray" stop-opacity=".25" offset="0%"/><stop stop-color="gray" stop-opacity=".12" offset="54%"/><stop stop-color="gray" stop-opacity=".1" offset="100%"/></linearGradient><linearGradient x1="50%" y1="100%" x2="50%" y2=".001%" id="linearGradient-12"><stop stop-color="#B3B3B3" stop-opacity=".25" offset="0%"/><stop stop-color="#B3B3B3" stop-opacity=".1" offset="54%"/><stop stop-color="#B3B3B3" stop-opacity=".05" offset="100%"/></linearGradient><linearGradient x1="49.98%" y1="99.949%" x2="49.98%" y2="0%" id="linearGradient-13"><stop stop-color="#FFF" stop-opacity=".12" offset="0%"/><stop stop-color="#FFF" stop-opacity=".09" offset="55%"/><stop stop-color="#FFF" stop-opacity=".02" offset="100%"/></linearGradient><linearGradient x1="77499%" y1="48473%" x2="77499%" y2="42515%" id="linearGradient-14"><stop stop-color="#FFF" stop-opacity=".12" offset="0%"/><stop stop-color="#FFF" stop-opacity=".09" offset="55%"/><stop stop-color="#FFF" stop-opacity=".02" offset="100%"/></linearGradient></defs><g id="Page-1" stroke="none" stroke-width="1" fill="none" fill-rule="evenodd"><g id="search"><g id="Group" opacity=".5" transform="translate(0.000000, 30.000000)" fill-rule="nonzero" fill="url(#linearGradient-1)"><rect id="Rectangle-path" x=".15" y=".21" width="448.44" height="602.6"/></g><rect id="Rectangle-path" fill="#F2F2F2" fill-rule="nonzero" x="5.99" y="38.39" width="434.43" height="581.58"/><rect id="Rectangle-path" fill="#E0E0E0" fill-rule="nonzero" x="39.86" y="62.91" width="149.48" height="4.67"/><rect id="Rectangle-path" fill="#294ACE" fill-rule="nonzero" opacity=".7" x="39.86" y="83.93" width="149.48" height="4.67"/><rect id="Rectangle-path" fill="#E0E0E0" fill-rule="nonzero" x="211.53" y="62.91" width="149.48" height="4.67"/><rect id="Rectangle-path" fill="#E0E0E0" fill-rule="nonzero" x="234.88" y="196.05" width="149.48" height="4.67"/><rect id="Rectangle-path" fill="#E0E0E0" fill-rule="nonzero" x="238.39" y="208.89" width="149.48" height="4.67"/><rect id="Rectangle-path" fill="#E0E0E0" fill-rule="nonzero" x="245.4" y="221.74" width="149.48" height="4.67"/><rect id="Rectangle-path" fill="#E0E0E0" fill-rule="nonzero" x="234.88" y="402.75" width="149.48" height="4.67"/><rect id="Rectangle-path" fill="#E0E0E0" fill-rule="nonzero" x="238.39" y="415.6" width="149.48" height="4.67"/><rect id="Rectangle-path" fill="#E0E0E0" fill-rule="nonzero" x="245.4" y="428.44" width="149.48" height="4.67"/><g id="Group" opacity=".5" transform="translate(41.000000, 148.000000)" fill-rule="nonzero" fill="url(#linearGradient-2)"><rect id="Rectangle-path" x=".03" y=".16" width="158.82" height="161.16"/></g><rect id="Rectangle-path" fill="#F5F5F5" fill-rule="nonzero" x="42.03" y="151.67" width="156.32" height="154.15"/><g id="Group" opacity=".5" transform="translate(47.000000, 161.000000)" fill-rule="nonzero" fill="url(#linearGradient-3)"><rect id="Rectangle-path" x=".54" y=".01" width="145.8" height="100.43"/></g><rect id="e1f34465-d008-41db-868b-e00503fb87b3" fill="#FFF" fill-rule="nonzero" x="48.54" y="162.18" width="143.79" height="96.93"/><g id="Clipped" transform="translate(227.000000, 222.000000)"><mask id="mask-5" fill="#fff"><use xlink:href="#path-4"/></mask><g id="Group" mask="url(#mask-5)" fill-rule="nonzero" fill="#294ACE" opacity=".4"><g transform="translate(-196.000000, -57.000000)"><polygon id="Shape" points="5.35 90.61 41.56 34.55 56.74 59.07 89.44 25.21 117.47 59.07 141.99 8.86 205.05 109.29 0.68 102.28"/><circle id="Oval" cx="33.38" cy="11.19" r="10.51"/></g></g></g><g id="Group" opacity=".5" transform="translate(41.000000, 354.000000)" fill-rule="nonzero" fill="url(#linearGradient-6)"><rect id="Rectangle-path" x=".03" y=".87" width="158.82" height="161.16"/></g><rect id="Rectangle-path" fill="#F5F5F5" fill-rule="nonzero" x="42.03" y="358.37" width="156.32" height="154.15"/><g id="Group" opacity=".5" transform="translate(47.000000, 367.000000)" fill-rule="nonzero" fill="url(#linearGradient-7)"><rect id="Rectangle-path" x=".54" y=".72" width="145.8" height="100.43"/></g><rect id="c95ac4f6-be4d-44a3-92c2-5c8066e2b531" fill="#FFF" fill-rule="nonzero" x="48.54" y="368.88" width="143.79" height="96.93"/><g id="Clipped" transform="translate(227.000000, 429.000000)"><mask id="mask-9" fill="#fff"><use xlink:href="#path-8"/></mask><g id="Group" mask="url(#mask-9)" fill-rule="nonzero" fill="#BDBDBD" opacity=".4"><g transform="translate(-196.000000, -57.000000)"><polygon id="Shape" points="5.35 90.31 41.56 34.25 56.74 58.78 89.44 24.91 117.47 58.78 141.99 8.56 205.05 108.99 0.68 101.99"/><circle id="Oval" cx="33.38" cy="10.9" r="10.51"/></g></g></g><g id="Group" opacity=".5" transform="translate(65.000000, 0.000000)" fill-rule="nonzero" fill="url(#linearGradient-10)"><rect id="Rectangle-path" transform="translate(279.634150, 339.662384) rotate(-78.760000) translate(-279.634150, -339.662384)" x="-21.666" y="115.442" width="602.6" height="448.44"/></g><rect id="Rectangle-path" fill="#FFF" fill-rule="nonzero" transform="translate(343.943087, 337.146979) rotate(-78.760000) translate(-343.943087, -337.146979)" x="53.153" y="119.932" width="581.58" height="434.43"/><rect id="Rectangle-path" fill="#E0E0E0" fill-rule="nonzero" transform="translate(364.062125, 74.415239) rotate(11.240000) translate(-364.062125, -74.415239)" x="209.907" y="72.08" width="308.31" height="4.67"/><rect id="Rectangle-path" fill="#E0E0E0" fill-rule="nonzero" transform="translate(278.018675, 507.395836) rotate(11.240000) translate(-278.018675, -507.395836)" x="123.864" y="505.061" width="308.31" height="4.67"/><rect id="Rectangle-path" fill="#E0E0E0" fill-rule="nonzero" transform="translate(238.410454, 526.901849) rotate(11.240000) translate(-238.410454, -526.901849)" x="119.29" y="524.567" width="238.24" height="4.67"/><rect id="Rectangle-path" fill="#294ACE" fill-rule="nonzero" opacity=".7" transform="translate(159.865853, 538.685976) rotate(11.240000) translate(-159.865853, -538.685976)" x="115.491" y="536.351" width="88.75" height="4.67"/><rect id="Rectangle-path" fill="#294ACE" fill-rule="nonzero" opacity=".7" transform="translate(283.216207, 85.740850) rotate(11.240000) translate(-283.216207, -85.740850)" x="206.141" y="83.406" width="154.15" height="4.67"/><rect id="Rectangle-path" fill="#E0E0E0" fill-rule="nonzero" transform="translate(338.700315, 124.147259) rotate(11.240000) translate(-338.700315, -124.147259)" x="199.73" y="121.812" width="277.94" height="4.67"/><rect id="Rectangle-path" fill="#3AD29F" fill-rule="nonzero" opacity=".7" transform="translate(230.370836, 130.010244) rotate(11.240000) translate(-230.370836, -130.010244)" x="196.506" y="127.675" width="67.73" height="4.67"/><rect id="Rectangle-path" fill="#E0E0E0" fill-rule="nonzero" transform="translate(343.123190, 179.802371) rotate(11.240000) translate(-343.123190, -179.802371)" x="188.968" y="177.467" width="308.31" height="4.67"/><g id="Group" opacity=".5" transform="translate(188.000000, 258.000000)" fill-rule="nonzero" fill="url(#linearGradient-11)"><rect id="Rectangle-path" transform="translate(151.275294, 105.604965) rotate(-78.760000) translate(-151.275294, -105.604965)" x="71.865" y="-32.78" width="158.82" height="276.77"/></g><rect id="Rectangle-path" fill="#FFF" fill-rule="nonzero" transform="translate(339.437958, 363.033547) rotate(11.240000) translate(-339.437958, -363.033547)" x="202.803" y="285.374" width="273.27" height="155.32"/><rect id="Rectangle-path" fill="#E0E0E0" fill-rule="nonzero" transform="translate(337.887578, 206.155584) rotate(11.240000) translate(-337.887578, -206.155584)" x="183.733" y="203.821" width="308.31" height="4.67"/><rect id="Rectangle-path" fill="#294ACE" fill-rule="nonzero" transform="translate(250.103325, 345.280120) rotate(11.240000) translate(-250.103325, -345.280120)" x="233.168" y="288.64" width="33.87" height="113.28"/><rect id="Rectangle-path" fill="#3AD29F" fill-rule="nonzero" transform="translate(306.021005, 375.446413) rotate(11.240000) translate(-306.021005, -375.446413)" x="289.086" y="337.491" width="33.87" height="75.91"/><rect id="Rectangle-path" fill="#F55F44" fill-rule="nonzero" transform="translate(362.177456, 404.464499) rotate(11.240000) translate(-362.177456, -404.464499)" x="345.242" y="384.029" width="33.87" height="40.87"/><rect id="Rectangle-path" fill="#FDD835" fill-rule="nonzero" transform="translate(425.836829, 395.686362) rotate(11.240000) translate(-425.836829, -395.686362)" x="408.902" y="354.226" width="33.87" height="82.92"/><path d="M547.45,250.01 C518.341019,219.734291 478.247145,202.484988 436.248916,202.168744 C394.250686,201.852501 353.901601,218.496076 324.34,248.33 C265.34,307.81 264.34,404.66 322.05,465.4 C374.397277,520.498528 458.84788,529.81809 521.95,487.46 L634.64,604.67 C637.545327,607.690291 642.348721,607.784299 645.37,604.88 L673.45,577.88 C676.470291,574.974673 676.564299,570.171279 673.66,567.15 L561,449.95 C605.589178,388.84233 599.876178,304.542907 547.45,250.01 Z M512.35,438.46 C467.958165,481.136717 397.375401,479.747188 354.697622,435.356375 C312.019843,390.965561 313.407681,320.382764 357.797474,277.703922 C402.187266,235.02508 472.770095,236.41123 515.45,280.8 C535.946921,302.1176 547.135482,330.704753 546.554113,360.272064 C545.972744,389.839375 533.669072,417.96461 512.35,438.46 L512.35,438.46 Z" id="Shape" fill="url(#linearGradient-12)" fill-rule="nonzero"/><path d="M352.49,327.06 C339.95,327.06 339.93,346.55 352.49,346.55 C365.05,346.55 365.05,327.06 352.49,327.06 Z" id="Shape" fill="url(#linearGradient-13)" fill-rule="nonzero"/><path d="M439.9,264.63 C406.15,263.87 375.44,280.8 359.11,306.36 C353.78,314.7 368.91,322.07 374.21,313.77 C387.73,292.61 413.42,279.17 441.21,279.87 C470.33,280.6 496.83,297.26 510.86,320.38 C516.18,329.15 530.13,321.18 524.86,312.46 C507.8,284.46 474.76,265.46 439.9,264.63 Z" id="Shape" fill="url(#linearGradient-14)" fill-rule="nonzero"/><path d="M559.68,244.09 C530.571019,213.814291 490.477145,196.564988 448.478916,196.248744 C406.480686,195.932501 366.131601,212.576076 336.57,242.41 C277.57,301.89 276.57,398.74 334.28,459.48 C386.629881,514.575307 471.080229,523.890615 534.18,481.53 L646.86,598.75 C649.765327,601.770291 654.568721,601.864299 657.59,598.96 L685.67,571.96 C688.690291,569.054673 688.784299,564.251279 685.88,561.23 L573.19,444.02 C617.784215,382.92374 612.088277,298.631448 559.68,244.09 L559.68,244.09 Z M524.58,432.46 C480.188165,475.136717 409.605401,473.747188 366.927622,429.356375 C324.249843,384.965561 325.637681,314.382764 370.027474,271.703922 C414.417266,229.02508 485.000095,230.41123 527.68,274.8 C548.176921,296.1176 559.365482,324.704753 558.784113,354.272064 C558.202744,383.839375 545.899072,411.96461 524.58,432.46 Z" id="Shape" fill="#294ACE" fill-rule="nonzero"/><path d="M364.72,321.13 C352.18,321.13 352.16,340.62 364.72,340.62 C377.28,340.62 377.28,321.13 364.72,321.13 Z" id="Shape" fill="#294ACE" fill-rule="nonzero"/><path d="M452.13,258.71 C418.38,257.95 387.67,274.88 371.34,300.44 C366.01,308.78 381.14,316.15 386.44,307.85 C399.96,286.69 425.65,273.25 453.44,273.95 C482.56,274.68 509.06,291.34 523.09,314.46 C528.41,323.23 542.36,315.26 537.09,306.54 C520,278.46 487,259.46 452.13,258.71 Z" id="Shape" fill="#294ACE" fill-rule="nonzero"/></g></g></svg>